<svg xmlns="http://www.w3.org/2000/svg" width="24" height="24" viewBox="0 0 24 24" fill="none">
<path fill-rule="evenodd" clip-rule="evenodd" d="M19.37 15.3101L18.7693 13.6763C18.6088 13.2397 17.9913 13.2397 17.8307 13.6763L17.23 15.3101C17.2139 15.359 17.1864 15.4035 17.15 15.4399C17.1135 15.4764 17.069 15.5039 17.02 15.52L15.3863 16.1207C14.9497 16.2812 14.9497 16.8987 15.3863 17.0593L17.02 17.66C17.069 17.6762 17.1135 17.7036 17.15 17.7401C17.1864 17.7766 17.2139 17.821 17.23 17.87L17.8307 19.5037C17.9913 19.9403 18.6088 19.9403 18.7693 19.5037L19.37 17.87C19.3862 17.821 19.4136 17.7766 19.45 17.7401C19.4865 17.7036 19.531 17.6762 19.58 17.66L21.2138 17.0593C21.6504 16.8987 21.6503 16.2812 21.2137 16.1207L19.58 15.52C19.531 15.5039 19.4865 15.4764 19.45 15.4399C19.4136 15.4035 19.3862 15.359 19.37 15.3101ZM10.37 10.5701C10.3872 10.6156 10.4146 10.6567 10.45 10.6901C10.4844 10.7291 10.5297 10.757 10.58 10.77L14.0052 12.0308C14.4416 12.1914 14.4416 12.8086 14.0052 12.9692L10.58 14.23C10.5309 14.2505 10.4866 14.2813 10.45 14.3201C10.4146 14.3535 10.3872 14.3945 10.37 14.4401L9.10935 17.8722C8.94891 18.309 8.33111 18.309 8.17067 17.8722L6.91 14.4401C6.88928 14.3964 6.86234 14.356 6.83002 14.3201C6.79347 14.2813 6.74918 14.2505 6.70001 14.23L3.27479 12.9692C2.8384 12.8086 2.8384 12.1914 3.27479 12.0308L6.70001 10.77C6.75037 10.757 6.79566 10.7291 6.83002 10.6901C6.86234 10.6541 6.88928 10.6137 6.91 10.5701L8.17067 7.13782C8.33111 6.701 8.94891 6.701 9.10935 7.13782L10.37 10.5701ZM16.31 4.87661C16.2967 4.85895 16.2861 4.83945 16.2785 4.81874L16.0793 4.27677C15.9188 3.84011 15.3012 3.84011 15.1407 4.27677L14.93 4.84998C14.9216 4.8806 14.9069 4.90896 14.8872 4.93338C14.8653 4.96041 14.8397 4.98454 14.8131 5.00689C14.7856 5.02997 14.7541 5.04804 14.72 5.06006L14.1468 5.27073C13.7101 5.43122 13.7101 6.04881 14.1468 6.20933L14.72 6.42004C14.769 6.4362 14.8135 6.46353 14.85 6.5C14.8864 6.53647 14.9139 6.58103 14.93 6.63L15.1407 7.20321C15.3012 7.63987 15.9188 7.63987 16.0793 7.20321L16.29 6.63C16.3006 6.59993 16.3159 6.57186 16.3352 6.5468C16.3615 6.51263 16.3905 6.47934 16.4253 6.45388C16.4474 6.4377 16.4728 6.4261 16.5 6.42004L17.0732 6.20933C17.5099 6.04881 17.5099 5.43122 17.0732 5.27073L16.5 5.06006C16.4637 5.04631 16.4309 5.02489 16.4038 4.99747C16.3867 4.98025 16.3709 4.96183 16.3555 4.94306C16.3456 4.93087 16.3365 4.91801 16.3283 4.90454C16.3226 4.89501 16.3167 4.88553 16.31 4.87661V4.87661Z" fill="white"/>
</svg>